HIERARCHY
ROOT Hips
{
  OFFSET 267.745 86.9975 -272.335
  CHANNELS 6 Xposition Yposition Zposition Zrotation Xrotation Yrotation
  JOINT LeftUpLeg
  {
    OFFSET 8.64259 1.95398 -2.38835
    CHANNELS 3 Zrotation Xrotation Yrotation
    JOINT LeftLeg
    {
      OFFSET 43.7702 0 0
      CHANNELS 3 Zrotation Xrotation Yrotation
      JOINT LeftFoot
      {
        OFFSET 40.6238 0 0
        CHANNELS 3 Zrotation Xrotation Yrotation
        JOINT LeftToeBase
        {
          OFFSET 12.7242 0 0
          CHANNELS 3 Zrotation Xrotation Yrotation
          End Site
          {
            OFFSET 0 0 0
          }
        }
      }
    }
  }
  JOINT RightUpLeg
  {
    OFFSET -8.2249 1.95398 -2.59336
    CHANNELS 3 Zrotation Xrotation Yrotation
    JOINT RightLeg
    {
      OFFSET 43.5653 0 0
      CHANNELS 3 Zrotation Xrotation Yrotation
      JOINT RightFoot
      {
        OFFSET 40.6238 0 0
        CHANNELS 3 Zrotation Xrotation Yrotation
        JOINT RightToeBase
        {
          OFFSET 12.7242 0 0
          CHANNELS 3 Zrotation Xrotation Yrotation
          End Site
          {
            OFFSET 0 0 0
          }
        }
      }
    }
  }
  JOINT Spine
  {
    OFFSET 0.165834 0.87714 6.61349
    CHANNELS 3 Zrotation Xrotation Yrotation
    JOINT Spine1
    {
      OFFSET 7.38963 1.71661e-005 0
      CHANNELS 3 Zrotation Xrotation Yrotation
      JOINT Spine2
      {
        OFFSET 11.9445 1.14441e-005 0
        CHANNELS 3 Zrotation Xrotation Yrotation
        JOINT Spine3
        {
          OFFSET 14.7254 4.19617e-005 0
          CHANNELS 3 Zrotation Xrotation Yrotation
          JOINT Spine4
          {
            OFFSET 10.9679 0 0
            CHANNELS 3 Zrotation Xrotation Yrotation
            JOINT RightShoulder
            {
              OFFSET 2.46616 -1.6653 3.69651
              CHANNELS 3 Zrotation Xrotation Yrotation
              JOINT RightArm
              {
                OFFSET 13.0012 0 0
                CHANNELS 3 Zrotation Xrotation Yrotation
                JOINT RightForeArm
                {
                  OFFSET 28.7848 1.52588e-005 0
                  CHANNELS 3 Zrotation Xrotation Yrotation
                  JOINT RightHand
                  {
                    OFFSET 26.5688 1.52588e-005 0
                    CHANNELS 3 Zrotation Xrotation Yrotation
                    End Site
                    {
                      OFFSET 0 0 0
                    }
                  }
                }
              }
            }
            JOINT LeftShoulder
            {
              OFFSET 2.38034 -1.29275 -3.7523
              CHANNELS 3 Zrotation Xrotation Yrotation
              JOINT LeftArm
              {
                OFFSET 16.3182 6.10352e-005 0
                CHANNELS 3 Zrotation Xrotation Yrotation
                JOINT LeftForeArm
                {
                  OFFSET 27.0901 0 0
                  CHANNELS 3 Zrotation Xrotation Yrotation
                  JOINT LeftHand
                  {
                    OFFSET 24.5451 1.52588e-005 0
                    CHANNELS 3 Zrotation Xrotation Yrotation
                    End Site
                    {
                      OFFSET 0 0 0
                    }
                  }
                }
              }
            }
            JOINT Neck
            {
              OFFSET 5.0226 -0.0266342 0
              CHANNELS 3 Zrotation Xrotation Yrotation
              JOINT Head
              {
                OFFSET 6.69364 2.86102e-005 0
                CHANNELS 3 Zrotation Xrotation Yrotation
                End Site
                {
                  OFFSET 0 0 0
                }
              }
            }
          }
        }
      }
    }
  }
}
MOTION
Frames:	6
Frame Time:	0.0416667
-67.7643 95.2804 39.4551 97.3449 -0.158901 92.2178 -178.02 17.3839 88.7455 -6.99044 6.30772 1.30852 57.3192 -0.667907 5.16687 50.8505 -2.09982 4.69845 175.595 -1.75266 91.8323 -28.7812 -5.75645 -0.115747 72.0121 1.61518 17.0557 28.5196 -0.156336 2.39963 0.25442 7.9646 -90.4566 10.945 0.295246 -0.936316 -0.726241 0.253749 -0.9484 -23.2596 0.562993 -0.804305 -3.24691 0.562999 -0.804302 102.281 -47.1117 -81.9774 29.7083 -13.5397 -12.1284 -10.9348 -14.9061 -37.2062 -16.3804 -0.716855 -0.112585 -79.7478 -51.707 94.0343 -35.2633 -6.9164 0.397774 6.77549 53.6781 -9.0705 -11.3093 -0.0294863 -5.151 -8.56675 3.46158 -4.305 -31.5828 0.445549 13.3929 
-59.3178 94.298 39.3571 96.9747 -2.96151 92.917 -176.884 17.0402 89.9537 -6.85103 3.74344 1.00748 55.0106 -2.28862 5.09273 47.3229 -1.6961 7.47288 175.495 -4.91968 91.2954 -31.351 -7.55086 -0.862574 70.2786 2.45893 19.3527 38.0048 -2.25981 3.84482 0.520305 7.80514 -90.3117 11.2665 0.890398 -0.709374 -0.404349 0.858313 -0.74788 -22.9414 1.06241 -0.408971 -2.92873 1.06241 -0.408965 101.906 -47.6589 -82.5823 30.4705 -14.2957 -12.185 -11.6047 -15.2771 -37.493 -15.1139 -0.590616 -0.682331 -78.9876 -52.7263 95.1889 -33.4012 -7.54104 1.98582 8.74185 49.7664 -11.9833 -11.8777 -0.062644 -4.71023 -9.23717 3.87019 -3.88746 -31.7098 0.695928 13.7771 
-50.2508 93.5032 38.9846 97.5632 -2.75423 92.0467 -176.407 17.0053 89.0211 -16.4081 8.54646 0.464384 50.5221 -5.71783 10.7876 38.2309 -0.878318 -2.75379 173.117 -7.75387 87.4549 -34.4368 -8.21391 -1.01151 57.4613 8.25533 27.2779 45.1059 -3.46743 13.8514 0.538635 7.61086 -89.9395 11.6547 1.09982 0.00396852 -0.0157412 1.09891 -0.0444494 -22.5546 1.04778 0.334365 -2.54194 1.04776 0.334358 101.968 -48.4481 -82.4803 33.1019 -13.6 -8.54418 -12.4717 -19.4524 -34.3409 -12.81 -0.462194 -1.01759 -78.4106 -52.5729 96.0381 -31.6137 -7.7401 0.631662 9.8625 44.7977 -14.1424 -9.31782 -0.100549 -4.15517 -10.1102 3.87238 -4.63808 -33.071 0.29599 14.6564 
-42.63 92.7686 38.2426 99.4714 -1.60195 90.8276 -175.966 16.5997 86.4986 -29.6681 10.1479 0.161567 58.7837 -0.785209 16.1476 33.1965 0.115634 -7.92577 171.361 -1.16476 82.8311 -51.5653 -16.1234 -1.38938 42.3784 13.5192 25.6413 27.4471 -0.0125267 6.91798 0.487769 7.67387 -89.6383 11.523 1.13967 0.605162 -0.147577 1.16522 0.554403 -22.6844 0.905123 0.919709 -2.67177 0.90512 0.919704 101.6 -48.204 -83.0698 35.6095 -11.2068 -5.73158 -10.431 -24.3815 -27.3024 -9.70448 -0.392341 -0.490706 -78.5813 -52.5217 95.7854 -29.9823 -5.26172 -5.59247 9.98038 42.4514 -15.7065 -6.85241 -0.142053 -3.01488 -10.749 4.36762 -3.85136 -33.0335 0.643 15.0341 
-35.3955 93.1678 37.6157 102.011 1.87002 90.7877 -176.014 10.7169 86.1688 -33.4236 11.5837 1.24545 64.0777 3.34893 16.2906 34.3562 -0.0704233 -8.078 171.235 7.51115 83.0812 -67.223 -16.9088 -1.60703 43.1246 12.6524 19.6086 32.0459 -0.770154 -0.667282 0.181666 7.94711 -89.6414 10.9777 0.527732 0.663138 -0.693296 0.556365 0.639282 -23.2275 0.304031 0.791085 -3.2148 0.304038 0.791083 101.452 -48.0443 -83.3079 36.2725 -8.07792 -6.45242 -5.75525 -28.8331 -17.4536 -8.3907 -0.376776 0.0487877 -79.1925 -51.4657 94.8562 -29.3848 -2.45933 -14.9139 10.2066 40.3334 -16.9692 -5.49546 -0.093177 -4.2729 -12.8116 5.60772 -2.0181 -31.555 1.94453 15.2755 
-28.4569 94.0148 37.0865 103.121 7.29801 90.7471 -175.786 4.27027 86.9129 -32.6356 16.6523 2.20289 66.4704 6.15516 16.7143 36.7278 -0.544975 -7.24544 170.471 14.3823 84.0297 -66.2905 -14.6212 -0.679181 50.4131 8.98389 17.9512 36.9264 -2.09868 5.77383 -0.206301 7.97139 -89.7286 10.9313 -0.28511 0.566974 -0.739767 -0.259898 0.578975 -23.2745 -0.442339 0.455081 -3.2619 -0.442329 0.455074 101.653 -48.1185 -82.9856 36.5889 -4.61864 -3.53642 -4.12035 -29.3308 -14.0949 -7.80714 -0.400304 0.843116 -79.0553 -50.0138 95.0281 -28.5888 1.05448 -20.2555 14.1522 34.9981 -25.7518 -2.95689 -0.0860344 -4.98703 -14.1551 5.52597 -1.59461 -32.2822 1.72432 15.2968 
